<svg xmlns="http://www.w3.org/2000/svg" x="0" y="0" viewBox="0 0 439 439" version="1.1" xml:space="preserve">
  <g transform="matrix(18.2731,0,0,18.2731,35.8281,-202.606)">
    <path d="M10.2 11.5C4.6 11.5 0 13 0 14.9 0 15.4 1.2 22.5 1.7 25.3 1.9 26.6 5.2 28.4 10.2 28.4 15.2 28.4 18.4 26.6 18.7 25.3 19.2 22.5 20.4 15.4 20.4 14.9 20.3 13 15.8 11.5 10.2 11.5ZM10.2 26.1C8.4 26.1 7 24.7 7 22.9 7 21.1 8.4 19.7 10.2 19.7 12 19.7 13.4 21.1 13.4 22.9 13.4 24.6 12 26.1 10.2 26.1ZM10.2 15.9C6.6 15.9 3.7 15.3 3.7 14.5 3.7 13.7 6.6 13.1 10.2 13.1 13.8 13.1 16.7 13.7 16.7 14.5 16.7 15.3 13.8 15.9 10.2 15.9ZM17.5 28C17.3 28 17.2 28.1 17.2 28.1 17.2 28.1 14.7 30.1 10.2 30.1 5.7 30.1 3.2 28.1 3.2 28.1 3.2 28.1 3 28 2.9 28 2.7 28 2.5 28.1 2.5 28.4L2.5 28.5C2.9 30.6 3.2 32.1 3.2 32.3 3.5 33.8 6.5 35 10.1 35 13.7 35 16.7 33.8 17 32.3 17 32.1 17.3 30.6 17.7 28.5L17.7 28.4C17.8 28.2 17.7 28 17.5 28Z" fill="#fff"/>
    <circle cx="10.2" cy="22.8" r="1.6" fill="#fff"/>
  </g>
</svg>
